<svg width="20" height="20" viewBox="0 0 20 20" fill="none" xmlns="http://www.w3.org/2000/svg">
<rect width="20" height="20" rx="5" fill="#E35858"/>
<mask id="mask0_298_52" style="mask-type:alpha" maskUnits="userSpaceOnUse" x="3" y="3" width="14" height="14">
<rect x="3" y="3" width="14" height="14" fill="#D9D9D9"/>
</mask>
<g mask="url(#mask0_298_52)">
<path d="M7.08334 15.1978C6.7625 15.1978 6.48795 15.0839 6.25967 14.8561C6.031 14.6279 5.91667 14.3537 5.91667 14.0336V6.46591H5.33334V5.30166H8.25V4.71953H11.75V5.30166H14.6667V6.46591H14.0833V14.0336C14.0833 14.3537 13.9692 14.6279 13.7409 14.8561C13.5123 15.0839 13.2375 15.1978 12.9167 15.1978H7.08334ZM12.9167 6.46591H7.08334V14.0336H12.9167V6.46591ZM8.25 12.8693H9.41667V7.63017H8.25V12.8693ZM10.5833 12.8693H11.75V7.63017H10.5833V12.8693Z" fill="white"/>
</g>
</svg>
