<svg width="20" height="20" viewBox="0 0 20 20" fill="none" xmlns="http://www.w3.org/2000/svg">
<rect width="20" height="20" rx="5" fill="#0069FF"/>
<mask id="mask0_298_51" style="mask-type:alpha" maskUnits="userSpaceOnUse" x="3" y="3" width="14" height="14">
<rect x="3" y="3" width="14" height="14" fill="#D9D9D9"/>
</mask>
<g mask="url(#mask0_298_51)">
<path d="M5.91667 14.0336H6.73333L11.7646 9.01272L10.9479 8.19774L5.91667 13.2186V14.0336ZM14.2583 8.16863L11.7792 5.72369L12.5958 4.90871C12.8194 4.68556 13.0942 4.57399 13.4201 4.57399C13.7456 4.57399 14.0201 4.68556 14.2437 4.90871L15.0604 5.72369C15.284 5.94684 15.4007 6.21617 15.4104 6.53169C15.4201 6.84681 15.3132 7.11595 15.0896 7.3391L14.2583 8.16863ZM13.4125 9.02727L7.22917 15.1978H4.75V12.7238L10.9333 6.55323L13.4125 9.02727Z" fill="white"/>
</g>
</svg>
